<?xml version="1.0" encoding="utf-8"?>
<!-- Generator: Adobe Illustrator 19.1.0, SVG Export Plug-In . SVG Version: 6.00 Build 0)  -->
<svg version="1.1" id="Layer_1" xmlns="http://www.w3.org/2000/svg" xmlns:xlink="http://www.w3.org/1999/xlink" x="0px" y="0px"
	 viewBox="0 0 247.5 217.5" enable-background="new 0 0 247.5 217.5" xml:space="preserve">
<g>
	<g>
	</g>
	<g>
		<path fill="#653520" d="M79.5,133.5l34.7-115.1h35.1L96,171.5H63.1L10,18.4h35L79.5,133.5z"/>
	</g>
	<g>
		<path fill="#A7866A" d="M237.5,119.9c-1.2,16.3-7.2,29.2-18.1,38.6c-10.9,9.4-25.2,14.1-43,14.1c-19.5,0-34.8-6.5-45.9-19.7
			c-11.2-13.1-16.7-31.1-16.7-53.9v-9.3c0-14.6,2.6-27.5,7.7-38.6c5.1-11.1,12.5-19.7,22-25.6c9.6-5.9,20.7-8.9,33.3-8.9
			c17.5,0,31.6,4.7,42.3,14.1c10.7,9.4,16.9,22.6,18.6,39.5h-31.3c-0.8-9.8-3.5-16.9-8.2-21.3c-4.7-4.4-11.8-6.6-21.4-6.6
			c-10.4,0-18.2,3.7-23.4,11.2c-5.2,7.5-7.8,19.1-8,34.8v11.5c0,16.4,2.5,28.4,7.5,36c5,7.6,12.8,11.4,23.5,11.4
			c9.7,0,16.9-2.2,21.6-6.6c4.8-4.4,7.5-11.2,8.2-20.5H237.5z"/>
	</g>
	<g>
		<path fill="#653520" d="M18.2,200.4l0.1,0.5l0.1-0.5l6.9-19.3h2l-8.2,22h-1.8l-8.2-22h2L18.2,200.4z"/>
		<path fill="#653520" d="M30.1,182c0-0.3,0.1-0.6,0.3-0.9c0.2-0.2,0.5-0.4,0.9-0.4s0.7,0.1,0.9,0.4c0.2,0.2,0.3,0.5,0.3,0.9
			s-0.1,0.6-0.3,0.9s-0.5,0.3-0.9,0.3s-0.7-0.1-0.9-0.3S30.1,182.4,30.1,182z M32.2,203.1h-1.8v-16.3h1.8V203.1z"/>
		<path fill="#653520" d="M44.7,188.3c-0.4-0.1-0.8-0.1-1.2-0.1c-1.1,0-2.1,0.3-2.9,0.9c-0.8,0.6-1.3,1.5-1.7,2.7v11.2h-1.8v-16.3
			h1.8l0,2.6c1-1.9,2.5-2.9,4.6-2.9c0.5,0,0.9,0.1,1.2,0.2L44.7,188.3z"/>
		<path fill="#653520" d="M50.3,182.6v4.2h3.4v1.5h-3.4v10.9c0,0.9,0.2,1.6,0.5,2s0.9,0.7,1.6,0.7c0.3,0,0.8,0,1.5-0.2l0.1,1.5
			c-0.5,0.2-1.1,0.3-1.9,0.3c-1.2,0-2.1-0.4-2.7-1.1c-0.6-0.7-0.8-1.8-0.8-3.2v-10.9h-3v-1.5h3v-4.2H50.3z"/>
		<path fill="#653520" d="M68,201c-1.1,1.6-2.8,2.4-5.2,2.4c-1.7,0-3.1-0.5-4-1.5c-0.9-1-1.4-2.5-1.4-4.5v-10.6h1.8v10.4
			c0,3.1,1.3,4.7,3.8,4.7c2.6,0,4.3-1.1,5-3.2v-11.8h1.8v16.3H68L68,201z"/>
		<path fill="#653520" d="M84.8,203.1c-0.2-0.5-0.3-1.3-0.3-2.3c-0.6,0.8-1.4,1.5-2.4,1.9s-2,0.7-3.1,0.7c-1.6,0-2.8-0.4-3.8-1.3
			c-1-0.9-1.5-2-1.5-3.3c0-1.6,0.7-2.8,2-3.8c1.3-0.9,3.2-1.4,5.5-1.4h3.3v-1.9c0-1.2-0.4-2.1-1.1-2.8c-0.7-0.7-1.8-1-3.2-1
			c-1.3,0-2.3,0.3-3.1,1c-0.8,0.6-1.2,1.4-1.2,2.3l-1.8,0c0-1.3,0.6-2.4,1.8-3.4c1.2-1,2.7-1.4,4.5-1.4c1.8,0,3.3,0.5,4.3,1.4
			s1.6,2.2,1.6,3.8v7.7c0,1.6,0.2,2.8,0.5,3.6v0.2H84.8z M79.1,201.8c1.2,0,2.3-0.3,3.2-0.9c1-0.6,1.6-1.4,2.1-2.3V195h-3.2
			c-1.8,0-3.2,0.4-4.2,1c-1,0.6-1.5,1.5-1.5,2.6c0,0.9,0.3,1.7,1,2.3C77.1,201.5,78,201.8,79.1,201.8z"/>
		<path fill="#653520" d="M93.1,203.1h-1.8v-23.2h1.8V203.1z"/>
		<path fill="#653520" d="M121.5,196.2c-0.3,2.3-1.1,4.1-2.5,5.3c-1.4,1.2-3.3,1.8-5.6,1.8c-1.6,0-3.1-0.4-4.3-1.2
			c-1.3-0.8-2.2-2-2.9-3.5c-0.7-1.5-1-3.2-1-5.1v-2.9c0-2,0.3-3.7,1-5.2c0.7-1.5,1.7-2.7,3-3.5c1.3-0.8,2.8-1.2,4.4-1.2
			c2.4,0,4.2,0.6,5.6,1.9c1.4,1.3,2.2,3,2.4,5.3h-1.9c-0.5-3.7-2.5-5.6-6.1-5.6c-2,0-3.6,0.7-4.8,2.2s-1.8,3.6-1.8,6.2v2.7
			c0,2.5,0.6,4.6,1.7,6.1c1.2,1.5,2.7,2.3,4.7,2.3c1.9,0,3.4-0.5,4.4-1.4s1.6-2.3,1.8-4.2H121.5z"/>
		<path fill="#653520" d="M124.6,194.7c0-1.6,0.3-3,0.9-4.2c0.6-1.3,1.5-2.2,2.6-2.9s2.4-1.1,3.8-1.1c2.2,0,3.9,0.8,5.3,2.3
			c1.3,1.5,2,3.5,2,6.1v0.4c0,1.6-0.3,3-0.9,4.3c-0.6,1.3-1.5,2.2-2.6,2.9c-1.1,0.7-2.4,1-3.8,1c-2.2,0-3.9-0.8-5.3-2.3
			c-1.4-1.5-2-3.5-2-6.1V194.7z M126.4,195.2c0,2,0.5,3.6,1.5,4.8c1,1.3,2.3,1.9,4,1.9c1.6,0,3-0.6,4-1.9c1-1.3,1.5-2.9,1.5-5v-0.3
			c0-1.2-0.2-2.4-0.7-3.4c-0.5-1-1.1-1.8-1.9-2.4c-0.8-0.6-1.8-0.9-2.9-0.9c-1.6,0-2.9,0.6-3.9,1.9s-1.5,2.9-1.5,5V195.2z"/>
		<path fill="#653520" d="M141.9,194.7c0-1.6,0.3-3,0.9-4.2c0.6-1.3,1.5-2.2,2.6-2.9s2.4-1.1,3.8-1.1c2.2,0,3.9,0.8,5.3,2.3
			c1.3,1.5,2,3.5,2,6.1v0.4c0,1.6-0.3,3-0.9,4.3c-0.6,1.3-1.5,2.2-2.6,2.9c-1.1,0.7-2.4,1-3.8,1c-2.2,0-3.9-0.8-5.3-2.3
			c-1.4-1.5-2-3.5-2-6.1V194.7z M143.7,195.2c0,2,0.5,3.6,1.5,4.8c1,1.3,2.3,1.9,4,1.9c1.6,0,3-0.6,4-1.9c1-1.3,1.5-2.9,1.5-5v-0.3
			c0-1.2-0.2-2.4-0.7-3.4c-0.5-1-1.1-1.8-1.9-2.4c-0.8-0.6-1.8-0.9-2.9-0.9c-1.6,0-2.9,0.6-3.9,1.9s-1.5,2.9-1.5,5V195.2z"/>
		<path fill="#653520" d="M164.1,194.9l-2.1,2v6.2h-1.8v-23.2h1.8v14.9l1.7-1.8l6.3-6.1h2.3l-6.9,6.9l7.5,9.5h-2.2L164.1,194.9z"/>
		<path fill="#653520" d="M188.6,195.1c0,2.5-0.6,4.6-1.7,6.1s-2.6,2.2-4.5,2.2c-2.3,0-4-0.8-5.2-2.5l-0.1,2.2h-1.7v-23.2h1.8v9.2
			c1.1-1.8,2.9-2.7,5.1-2.7c1.9,0,3.5,0.7,4.6,2.2s1.7,3.5,1.7,6.2V195.1z M186.8,194.8c0-2.2-0.4-3.8-1.3-5c-0.8-1.2-2-1.8-3.5-1.8
			c-1.2,0-2.1,0.3-2.9,0.9c-0.8,0.6-1.4,1.4-1.8,2.5v7.4c0.9,2.1,2.5,3.1,4.8,3.1c1.5,0,2.7-0.6,3.5-1.8S186.8,197.1,186.8,194.8z"
			/>
		<path fill="#653520" d="M191.6,194.7c0-1.6,0.3-3,0.9-4.2c0.6-1.3,1.5-2.2,2.6-2.9s2.4-1.1,3.8-1.1c2.2,0,3.9,0.8,5.3,2.3
			c1.3,1.5,2,3.5,2,6.1v0.4c0,1.6-0.3,3-0.9,4.3c-0.6,1.3-1.5,2.2-2.6,2.9c-1.1,0.7-2.4,1-3.8,1c-2.2,0-3.9-0.8-5.3-2.3
			c-1.4-1.5-2-3.5-2-6.1V194.7z M193.4,195.2c0,2,0.5,3.6,1.5,4.8c1,1.3,2.3,1.9,4,1.9c1.6,0,3-0.6,4-1.9c1-1.3,1.5-2.9,1.5-5v-0.3
			c0-1.2-0.2-2.4-0.7-3.4c-0.5-1-1.1-1.8-1.9-2.4c-0.8-0.6-1.8-0.9-2.9-0.9c-1.6,0-2.9,0.6-3.9,1.9s-1.5,2.9-1.5,5V195.2z"/>
		<path fill="#653520" d="M208.9,194.7c0-1.6,0.3-3,0.9-4.2c0.6-1.3,1.5-2.2,2.6-2.9s2.4-1.1,3.8-1.1c2.2,0,3.9,0.8,5.3,2.3
			c1.3,1.5,2,3.5,2,6.1v0.4c0,1.6-0.3,3-0.9,4.3c-0.6,1.3-1.5,2.2-2.6,2.9c-1.1,0.7-2.4,1-3.8,1c-2.2,0-3.9-0.8-5.3-2.3
			c-1.4-1.5-2-3.5-2-6.1V194.7z M210.7,195.2c0,2,0.5,3.6,1.5,4.8c1,1.3,2.3,1.9,4,1.9c1.6,0,3-0.6,4-1.9c1-1.3,1.5-2.9,1.5-5v-0.3
			c0-1.2-0.2-2.4-0.7-3.4c-0.5-1-1.1-1.8-1.9-2.4c-0.8-0.6-1.8-0.9-2.9-0.9c-1.6,0-2.9,0.6-3.9,1.9s-1.5,2.9-1.5,5V195.2z"/>
		<path fill="#653520" d="M231.1,194.9l-2.1,2v6.2h-1.8v-23.2h1.8v14.9l1.7-1.8l6.3-6.1h2.3l-6.9,6.9l7.5,9.5h-2.2L231.1,194.9z"/>
	</g>
</g>
<g>
</g>
<g>
</g>
<g>
</g>
<g>
</g>
<g>
</g>
<g>
</g>
</svg>
