<?xml version="1.0" encoding="utf-8"?>
<!-- Generator: Adobe Illustrator 19.1.0, SVG Export Plug-In . SVG Version: 6.00 Build 0)  -->
<svg version="1.1" id="Layer_1" xmlns="http://www.w3.org/2000/svg" xmlns:xlink="http://www.w3.org/1999/xlink" x="0px" y="0px"
	 viewBox="0 0 312.7 263.4" enable-background="new 0 0 312.7 263.4" xml:space="preserve">
<g>
	<g>
	</g>
	<g>
		<path fill="#010101" d="M109.4,158.8l37.7-125h38.1L127.3,200H91.6L34,33.8h38L109.4,158.8z"/>
	</g>
	<g>
		<path fill="#CDCCCC" d="M281.1,144c-1.3,17.7-7.8,31.7-19.6,41.9c-11.8,10.2-27.4,15.3-46.7,15.3c-21.1,0-37.8-7.1-49.9-21.3
			c-12.1-14.2-18.2-33.7-18.2-58.6v-10.1c0-15.8,2.8-29.8,8.4-41.9c5.6-12.1,13.6-21.3,23.9-27.8c10.4-6.5,22.4-9.7,36.2-9.7
			c19,0,34.3,5.1,46,15.3c11.6,10.2,18.3,24.5,20.1,42.9h-34c-0.8-10.6-3.8-18.4-8.9-23.1c-5.1-4.8-12.8-7.2-23.3-7.2
			c-11.3,0-19.8,4.1-25.4,12.2c-5.6,8.1-8.5,20.7-8.7,37.8V122c0,17.8,2.7,30.8,8.1,39.1c5.4,8.2,13.9,12.3,25.5,12.3
			c10.5,0,18.3-2.4,23.5-7.2c5.2-4.8,8.1-12.2,8.9-22.2H281.1z"/>
	</g>
	<g>
		<path fill="#010101" d="M42.9,231.4l0.1,0.5l0.1-0.5l7.5-20.9h2.2L44,234.3H42l-8.9-23.9h2.2L42.9,231.4z"/>
		<path fill="#010101" d="M55.8,211.4c0-0.4,0.1-0.7,0.4-0.9c0.2-0.3,0.6-0.4,1-0.4c0.4,0,0.7,0.1,1,0.4s0.4,0.6,0.4,0.9
			s-0.1,0.7-0.4,0.9s-0.6,0.4-1,0.4c-0.4,0-0.7-0.1-1-0.4C55.9,212.1,55.8,211.8,55.8,211.4z M58.1,234.3h-2v-17.8h2V234.3z"/>
		<path fill="#010101" d="M71.6,218.2c-0.4-0.1-0.9-0.1-1.3-0.1c-1.2,0-2.3,0.3-3.1,1s-1.5,1.7-1.8,3v12.2h-2v-17.8h1.9l0,2.8
			c1-2.1,2.7-3.1,5-3.1c0.5,0,1,0.1,1.3,0.2L71.6,218.2z"/>
		<path fill="#010101" d="M77.8,212v4.5h3.7v1.6h-3.7V230c0,1,0.2,1.7,0.5,2.2s0.9,0.7,1.8,0.7c0.3,0,0.9-0.1,1.6-0.2l0.1,1.6
			c-0.5,0.2-1.2,0.3-2.1,0.3c-1.3,0-2.3-0.4-2.9-1.2c-0.6-0.8-0.9-1.9-0.9-3.5v-11.8h-3.3v-1.6h3.3V212H77.8z"/>
		<path fill="#010101" d="M97,232.1c-1.2,1.7-3.1,2.6-5.7,2.6c-1.9,0-3.3-0.5-4.3-1.6s-1.5-2.7-1.5-4.9v-11.6h2v11.3
			c0,3.4,1.4,5.1,4.1,5.1c2.8,0,4.6-1.2,5.4-3.5v-12.8h2v17.8H97L97,232.1z"/>
		<path fill="#010101" d="M115.2,234.3c-0.2-0.6-0.3-1.4-0.4-2.5c-0.7,0.9-1.6,1.6-2.6,2.1c-1.1,0.5-2.2,0.7-3.4,0.7
			c-1.7,0-3.1-0.5-4.1-1.4c-1.1-1-1.6-2.2-1.6-3.6c0-1.7,0.7-3.1,2.2-4.1c1.4-1,3.4-1.5,6-1.5h3.6v-2c0-1.3-0.4-2.3-1.2-3
			c-0.8-0.7-1.9-1.1-3.4-1.1c-1.4,0-2.5,0.4-3.4,1c-0.9,0.7-1.3,1.5-1.3,2.5l-2,0c0-1.4,0.7-2.6,2-3.7s2.9-1.6,4.8-1.6
			c2,0,3.5,0.5,4.7,1.5s1.7,2.4,1.8,4.1v8.4c0,1.7,0.2,3,0.5,3.9v0.2H115.2z M109,232.9c1.3,0,2.5-0.3,3.5-1c1-0.6,1.8-1.5,2.3-2.5
			v-3.9h-3.5c-2,0-3.5,0.4-4.6,1.1c-1.1,0.7-1.7,1.6-1.7,2.9c0,1,0.4,1.8,1.1,2.5S107.9,232.9,109,232.9z"/>
		<path fill="#010101" d="M124.2,234.3h-2v-25.2h2V234.3z"/>
		<path fill="#010101" d="M155.1,226.9c-0.3,2.5-1.2,4.4-2.7,5.8c-1.5,1.3-3.6,2-6.1,2c-1.8,0-3.3-0.4-4.7-1.3
			c-1.4-0.9-2.4-2.1-3.2-3.8c-0.7-1.6-1.1-3.5-1.1-5.6v-3.1c0-2.1,0.4-4,1.1-5.6c0.7-1.6,1.8-2.9,3.2-3.8c1.4-0.9,3-1.3,4.8-1.3
			c2.6,0,4.6,0.7,6.1,2.1c1.5,1.4,2.3,3.3,2.6,5.7h-2c-0.5-4.1-2.7-6.1-6.6-6.1c-2.2,0-3.9,0.8-5.2,2.4s-1.9,3.9-1.9,6.7v2.9
			c0,2.8,0.6,5,1.9,6.6c1.3,1.6,2.9,2.5,5.1,2.5c2.1,0,3.7-0.5,4.8-1.5c1.1-1,1.7-2.5,2-4.6H155.1z"/>
		<path fill="#010101" d="M158.4,225.2c0-1.7,0.3-3.2,1-4.6c0.7-1.4,1.6-2.4,2.8-3.2c1.2-0.8,2.6-1.1,4.1-1.1c2.4,0,4.3,0.8,5.7,2.5
			c1.5,1.7,2.2,3.9,2.2,6.6v0.4c0,1.7-0.3,3.3-1,4.6c-0.7,1.4-1.6,2.4-2.8,3.2c-1.2,0.7-2.6,1.1-4.1,1.1c-2.4,0-4.3-0.8-5.7-2.5
			c-1.5-1.7-2.2-3.9-2.2-6.6V225.2z M160.4,225.7c0,2.1,0.5,3.9,1.6,5.2s2.5,2,4.3,2c1.8,0,3.2-0.7,4.3-2s1.6-3.2,1.6-5.4v-0.4
			c0-1.4-0.3-2.6-0.8-3.7s-1.2-2-2.1-2.6c-0.9-0.6-1.9-0.9-3.1-0.9c-1.8,0-3.2,0.7-4.3,2.1c-1.1,1.4-1.7,3.2-1.7,5.4V225.7z"/>
		<path fill="#010101" d="M177.3,225.2c0-1.7,0.3-3.2,1-4.6c0.7-1.4,1.6-2.4,2.8-3.2c1.2-0.8,2.6-1.1,4.1-1.1c2.4,0,4.3,0.8,5.7,2.5
			c1.5,1.7,2.2,3.9,2.2,6.6v0.4c0,1.7-0.3,3.3-1,4.6c-0.7,1.4-1.6,2.4-2.8,3.2c-1.2,0.7-2.6,1.1-4.1,1.1c-2.4,0-4.3-0.8-5.7-2.5
			c-1.5-1.7-2.2-3.9-2.2-6.6V225.2z M179.2,225.7c0,2.1,0.5,3.9,1.6,5.2s2.5,2,4.3,2c1.8,0,3.2-0.7,4.3-2s1.6-3.2,1.6-5.4v-0.4
			c0-1.4-0.3-2.6-0.8-3.7s-1.2-2-2.1-2.6c-0.9-0.6-1.9-0.9-3.1-0.9c-1.8,0-3.2,0.7-4.3,2.1c-1.1,1.4-1.7,3.2-1.7,5.4V225.7z"/>
		<path fill="#010101" d="M201.4,225.4l-2.2,2.2v6.8h-2v-25.2h2v16.1l1.9-2l6.8-6.7h2.5l-7.5,7.5l8.2,10.3h-2.3L201.4,225.4z"/>
		<path fill="#010101" d="M227.9,225.6c0,2.8-0.6,5-1.8,6.6c-1.2,1.6-2.9,2.4-4.9,2.4c-2.5,0-4.3-0.9-5.6-2.8l-0.1,2.4h-1.8v-25.2h2
			v10c1.2-1.9,3.1-2.9,5.5-2.9c2.1,0,3.8,0.8,5,2.4c1.2,1.6,1.8,3.8,1.8,6.7V225.6z M225.9,225.3c0-2.3-0.5-4.1-1.4-5.4
			c-0.9-1.3-2.2-1.9-3.8-1.9c-1.3,0-2.3,0.3-3.2,0.9c-0.9,0.6-1.5,1.5-2,2.7v8c1,2.2,2.7,3.3,5.2,3.3c1.6,0,2.9-0.6,3.8-1.9
			S225.9,227.8,225.9,225.3z"/>
		<path fill="#010101" d="M231.1,225.2c0-1.7,0.3-3.2,1-4.6c0.7-1.4,1.6-2.4,2.8-3.2c1.2-0.8,2.6-1.1,4.1-1.1c2.4,0,4.3,0.8,5.7,2.5
			c1.5,1.7,2.2,3.9,2.2,6.6v0.4c0,1.7-0.3,3.3-1,4.6c-0.7,1.4-1.6,2.4-2.8,3.2c-1.2,0.7-2.6,1.1-4.1,1.1c-2.4,0-4.3-0.8-5.7-2.5
			c-1.5-1.7-2.2-3.9-2.2-6.6V225.2z M233.1,225.7c0,2.1,0.5,3.9,1.6,5.2s2.5,2,4.3,2c1.8,0,3.2-0.7,4.3-2s1.6-3.2,1.6-5.4v-0.4
			c0-1.4-0.3-2.6-0.8-3.7s-1.2-2-2.1-2.6c-0.9-0.6-1.9-0.9-3.1-0.9c-1.8,0-3.2,0.7-4.3,2.1c-1.1,1.4-1.7,3.2-1.7,5.4V225.7z"/>
		<path fill="#010101" d="M250,225.2c0-1.7,0.3-3.2,1-4.6c0.7-1.4,1.6-2.4,2.8-3.2c1.2-0.8,2.6-1.1,4.1-1.1c2.4,0,4.3,0.8,5.7,2.5
			c1.5,1.7,2.2,3.9,2.2,6.6v0.4c0,1.7-0.3,3.3-1,4.6c-0.7,1.4-1.6,2.4-2.8,3.2c-1.2,0.7-2.6,1.1-4.1,1.1c-2.4,0-4.3-0.8-5.7-2.5
			c-1.5-1.7-2.2-3.9-2.2-6.6V225.2z M251.9,225.7c0,2.1,0.5,3.9,1.6,5.2s2.5,2,4.3,2c1.8,0,3.2-0.7,4.3-2s1.6-3.2,1.6-5.4v-0.4
			c0-1.4-0.3-2.6-0.8-3.7s-1.2-2-2.1-2.6c-0.9-0.6-1.9-0.9-3.1-0.9c-1.8,0-3.2,0.7-4.3,2.1c-1.1,1.4-1.7,3.2-1.7,5.4V225.7z"/>
		<path fill="#010101" d="M274.1,225.4l-2.2,2.2v6.8h-2v-25.2h2v16.1l1.9-2l6.8-6.7h2.5l-7.5,7.5l8.2,10.3h-2.3L274.1,225.4z"/>
	</g>
</g>
<g>
</g>
<g>
</g>
<g>
</g>
<g>
</g>
<g>
</g>
<g>
</g>
</svg>
